<svg width="44" height="49" viewBox="0 0 44 49" fill="none" xmlns="http://www.w3.org/2000/svg">
<path d="M3.77539 19.6962C3.37851 18.1334 3.0926 16.1062 3.05541 14.085C3.01764 12.0318 3.24092 10.1923 3.71795 8.90458C4.47835 6.85202 5.35812 5.41215 6.41729 4.42548C7.43986 3.4729 8.7765 2.805 10.7214 2.53934C10.831 2.52436 10.9385 2.51259 11.0437 2.50404C12.7673 2.59868 14.5008 3.23744 18.0037 4.80322C20.4985 5.91839 23.3611 5.9201 25.8599 4.77311L28.7766 3.43429C29.8224 2.98801 30.5026 2.77339 31.3449 2.64771C32.5234 2.47187 33.6109 2.51627 34.7094 2.8007C36.905 3.36919 38.9462 5.18182 40.1173 7.46927C40.4483 8.11597 40.6992 8.79513 40.9382 9.69989C41.7528 13.1406 40.829 16.7669 39.7441 21.0261C39.6861 21.2537 39.6277 21.4831 39.569 21.7144L34.5532 41.4908C33.9902 43.1301 33.633 44.0993 33.2343 44.9542C32.9814 45.4964 32.7042 45.7953 32.4304 45.9622C31.7708 46.3641 31.0027 46.409 30.5065 46.2041C29.8878 45.9486 29.1337 45.3887 28.1701 43.2785C28.1081 43.1042 28.047 42.9324 27.9867 42.763C27.0873 40.2341 26.3698 38.2167 25.5903 35.7294C24.4903 32.2194 19.357 31.9785 18.167 35.6808L16.0951 42.1266C15.8026 43.0365 15.544 43.8245 15.211 44.5184C14.8813 45.2053 14.5573 45.625 14.2433 45.8706C13.5541 46.4094 12.2996 46.5047 11.1794 45.8135C11.1333 45.7851 11.0887 45.7544 11.0445 45.7204C10.7058 45.4598 10.3955 45.0298 10.1005 44.2759C9.84176 43.6148 9.66514 42.9075 9.44925 42.043C9.40487 41.8653 9.35883 41.6809 9.31007 41.489L3.77539 19.6962Z" fill="white" stroke="#626262" stroke-width="5"/>
<path d="M13.906 22.9688C20.4847 26.1702 24.0766 26.1558 30.3696 23.9977" stroke="#36B9C1" stroke-width="5" stroke-linecap="round"/>
</svg>
